PathFileType	4	(X/Y/Z)	C:/Users/beibeiliu/ov580/test_trc/capture2\sequence.3_training_dense_right.trc
DataRate	CameraRate	NumFrames	NumMarkers	Units	OrigDataRate	OrigDataStartFrame	OrigNumFrames
120	120	24	19	mm	120	1	350
Frame#	Time	ThumbCMC			ThumbMCP			ThumbIP			ThumbTip			IndexMCP			IndexPIP			IndexTip			MiddleMCP			MiddlePIP			MiddleTip			RingMCP			RingPIP			RingTip			PinkyMCP			PinkyPIP			PinkyTip			BackHand1			BackHand2			BackHand3	
		X0	Y0	Z0	X1	Y1	Z1	X2	Y2	Z2	X3	Y3	Z3	X4	Y4	Z4	X5	Y5	Z5	X6	Y6	Z6	X7	Y7	Z7	X8	Y8	Z8	X9	Y9	Z9	X10	Y10	Z10	X11	Y11	Z11	X12	Y12	Z12	X13	Y13	Z13	X14	Y14	Z14	X15	Y15	Z15	X16	Y16	Z16	X17	Y17	Z17	X18	Y18	Z18	
0	0	128.157	-3.65918	-5.57463	103.649	-13.6861	-21.9699	88.9834	-19.3387	-44.5516	77.8293	-23.7727	-62.6061	136.941	2.4255	-80.2817	130.709	-2.93919	-107.092	125.721	-2.14027	-126.963	166.723	1.87415	-86.3162	164.372	-3.14156	-111.598	169.437	-7.75615	-140.002	185.568	-4.56876	-81.5533	190.384	-8.96979	-106.023	197.228	-13.0371	-132.118	204.177	-12.7428	-67.7192	214.939	-17.1262	-86.4877	228.118	-16.1138	-103.76	184.002	8.88967	-32.6547	182.958	15.8079	-2.14783	152.935	16.0621	-17.8555	
1	0.00833333	125.481	-3.13415	-10.5266	107.496	-13.7122	-21.4305	90.0505	-18.6754	-46.1554	74.844	-22.7643	-59.1462	137.161	1.60282	-80.3765	128.95	-1.74987	-106.218	129.465	-2.68025	-130.94	163.35	1.48633	-85.4244	164.461	-4.03687	-115.379	169.922	-7.30064	-141.487	183.478	-4.55367	-83.7779	194.479	-9.96994	-102.318	195.927	-13.5205	-131.388	203.287	-13.7501	-66.7151	215.461	-17.8321	-87.0049	225.24	-17.0868	-107.717	183.624	8.10234	-32.3852	183.021	14.5329	-2.39653	152.387	17.0001	-21.2168	
2	0.0166667	124.596	-2.29656	-4.55498	107.353	-13.6742	-23.3504	88.689	-17.5825	-44.6157	77.1687	-21.4068	-60.818	137.855	1.323	-80.2669	129.244	-2.24271	-101.717	131.114	-2.91248	-127.052	163.931	0.443053	-89.7484	164.444	-4.48161	-113.978	170.728	-8.15089	-141.839	186.361	-5.5608	-81.2195	190.425	-10.3277	-101.697	196.52	-14.8947	-129.072	203.754	-13.2335	-67.1354	214.526	-19.4777	-83.4924	224.72	-17.1684	-102.388	184.782	7.57449	-32.6157	186.352	14.2584	-4.28832	154.725	17.1918	-19.0051	
3	0.025	123.921	-1.02414	-6.4408	105.645	-11.3871	-19.5111	89.6861	-16.0404	-45.1243	74.7501	-19.7572	-59.4838	136.588	3.01939	-77.1106	129.617	-1.61276	-104.945	132.852	-2.0119	-127.847	168.362	1.37	-86.2632	168.951	-4.39975	-113.533	173.34	-8.64917	-138.54	185.401	-3.43639	-81.8488	192.519	-9.01424	-104.409	195.489	-14.0213	-128.64	203.769	-12.5996	-64.724	212.953	-18.498	-80.7038	227.517	-16.3966	-104.185	182.67	10.6214	-31.7482	185.132	13.6081	-0.150415	151.539	17.319	-21.3201	
4	0.0333333	123.188	0.0794708	-6.51592	107.08	-11.077	-19.604	89.8736	-14.813	-42.518	75.5331	-18.8056	-59.0609	138.007	3.56088	-79.7475	130.129	0.0551716	-100.511	133.436	-1.82419	-125.786	163.84	2.6989	-81.904	167.014	-4.45247	-112.094	170.401	-7.09881	-135.728	184.588	-4.20712	-75.6323	189.871	-8.97611	-103.81	196.215	-12.6501	-128.707	204.895	-13.1976	-60.5613	214.962	-17.2168	-83.6785	227.741	-16.9023	-103.093	183.346	10.2474	-27.1062	188.259	15.5308	0.94999	156.968	17.4189	-16.0339	
5	0.0416667	124.085	-1.44598	-6.62288	109.367	-12.3169	-19.7708	92.8029	-15.9079	-38.0236	78.1333	-18.7331	-55.7724	135.374	2.42714	-76.912	134.149	-1.48852	-102.64	127.296	-1.27418	-127.104	166.466	1.91622	-81.1705	169.565	-3.78099	-107.693	170.036	-7.50345	-133.345	184.139	-3.9239	-78.4275	193.084	-8.53768	-99.5377	194.051	-13.3576	-124.163	207.292	-13.1836	-62.9017	212.753	-17.0761	-79.8631	230.259	-15.3872	-102.557	187.603	8.432	-28.8346	185.496	14.0203	-1.04308	156.663	16.4621	-19.1199	
6	0.05	126.744	-2.57312	-5.3759	106.387	-10.9933	-17.7646	88.4482	-14.7452	-39.952	75.2596	-18.8014	-53.7456	137.023	2.57102	-76.8919	129.31	-0.592265	-102.018	133.166	-1.53817	-126.471	164.001	2.70439	-82.3164	167.341	-3.68129	-107.662	171.066	-7.62118	-135.094	188.578	-3.42668	-77.707	194.439	-8.54554	-99.3975	197.962	-12.9639	-123.681	204.628	-12.3259	-60.6343	217.94	-17.9824	-80.7558	230.933	-15.9945	-102.823	184.188	10.8585	-26.0808	183.189	14.7897	1.43441	154.385	16.1798	-18.1144	
7	0.0583333	126.36	-1.10869	-1.67369	107.414	-10.2531	-18.6562	90.5279	-14.2873	-39.5223	75.7932	-17.4095	-56.2951	136.008	4.45389	-77.5747	133.371	-0.503835	-104.753	131.634	-0.167769	-129.435	167.15	2.74537	-84.4005	168.721	-2.87654	-109.821	175.396	-6.73817	-139.547	190.114	-3.41139	-78.8355	196.443	-8.06898	-101.104	196.034	-11.3556	-124.443	205.857	-10.6778	-59.7685	215.192	-15.8227	-78.6692	231.927	-13.5187	-99.9814	184.592	12.8276	-31.0739	184.613	17.1389	2.64931	152.806	18.6455	-15.8921	
8	0.0666667	129.5	-1.70239	-7.0021	107.91	-10.2472	-18.3272	93.3155	-14.3766	-38.2207	77.4998	-18.1144	-54.5244	138.887	3.44513	-79.2675	133.14	0.544864	-103.031	134.475	-0.0384497	-124.935	168.794	3.36752	-83.2209	170.865	-3.2062	-112.035	173.201	-6.27251	-133.833	187.39	-2.00576	-75.3547	193.651	-7.73872	-98.624	198.955	-11.5997	-127.271	208.573	-10.6816	-61.3126	216.015	-16.3561	-81.5884	233.006	-15.9393	-97.1428	189.748	12.4987	-29.3668	188.772	15.9597	-0.371993	157.229	17.4794	-15.1125	
9	0.075	128.335	0.641417	-2.37434	108.374	-10.0344	-19.0635	92.8456	-13.0885	-38.3437	77.7959	-16.3853	-56.6758	141.828	4.84245	-79.5392	132.751	0.744596	-99.4772	133.539	-0.0989046	-127.767	166.59	5.06393	-86.1507	171.065	-1.71296	-112.019	172.884	-4.14956	-135.009	189.4	-1.3958	-75.6467	193.525	-6.77359	-98.9307	198.054	-10.657	-125.788	211.76	-10.5338	-61.2125	218.267	-15.5439	-80.8781	230.189	-13.2187	-100.321	185.503	11.1055	-27.0449	189.588	15.4907	-1.55605	160.205	19.7539	-14.7376	
10	0.0833333	131.628	0.36617	-5.64024	107.426	-8.37572	-20.933	90.5282	-12.9374	-39.4312	78.9028	-16.8484	-58.2574	140.667	5.57047	-75.3726	132.593	1.14322	-103.398	137.065	0.907675	-125.512	169.681	4.00407	-84.9281	173.98	-0.758569	-107.925	175.732	-4.69287	-135.047	191.876	-1.71129	-79.0332	195.791	-6.26015	-99.5792	199.374	-10.3406	-125.413	212.722	-11.5966	-61.2263	218.389	-15.8305	-80.9462	232.538	-13.5669	-103.267	186.66	11.6067	-25.3996	189.156	17.5488	2.19808	159.852	17.5108	-14.1547	
11	0.0916667	130.848	-0.157639	-1.45814	113.526	-9.67868	-19.9333	92.4574	-13.2014	-43.3167	77.3664	-16.2307	-59.5885	139.103	4.72363	-77.9104	135.431	1.1458	-103.26	134.563	0.197853	-128.118	167.342	4.34503	-82.1706	172.703	-0.786553	-109.909	172.829	-3.49926	-136.043	191.581	-1.30588	-78.5924	197.324	-6.9142	-99.5815	199.079	-11.1619	-127.874	209.274	-10.3365	-65.9466	220.931	-15.48	-83.7715	234.219	-14.9256	-101.793	189.669	11.11	-30.8472	189.218	16.2615	0.251908	156.592	17.4846	-18.6818	
12	0.1	129.327	1.70368	-3.40955	113.055	-8.6461	-20.911	95.2788	-12.5052	-39.0467	80.5691	-14.9668	-56.5224	138.637	6.70034	-80.8726	136.219	1.76506	-103.868	132.469	0.942002	-124.257	167.899	5.49504	-88.1166	175.012	-1.55022	-113.025	176.344	-4.23363	-137.076	191.132	-0.766679	-80.9127	199.724	-6.78977	-103.71	198.652	-9.79453	-128.604	212.477	-9.14833	-65.6941	219.269	-14.5142	-83.8086	231.873	-13.8544	-103.696	188.668	14.6132	-30.8296	189.707	16.7337	-1.57134	157.902	21.2409	-16.2793	
13	0.108333	133.46	0.630181	-6.69881	111.925	-9.11886	-21.3854	96.466	-12.0045	-41.24	80.9208	-15.3593	-55.1874	143.255	5.41166	-78.7012	137.8	1.82286	-103.838	133.541	1.42931	-130.057	173.204	5.09174	-83.4651	174.994	-0.652217	-109.073	178.019	-3.98207	-139.496	194.49	-1.65501	-81.486	194.315	-6.39985	-101.836	201.235	-10.1268	-124.795	213.324	-10.0302	-61.8455	221.999	-15.8187	-84.3057	230.46	-13.6287	-101.053	188.608	13.3559	-27.7118	190.388	16.8552	-2.78243	157.678	21.1347	-16.3632	
14	0.116667	131.687	-0.0495868	-6.14517	109.354	-8.95958	-18.4024	95.4163	-12.6351	-40.351	78.3451	-15.0844	-59.4445	140.517	5.48463	-81.4709	137.81	0.0430386	-105.687	133.43	0.0993746	-126.774	168.952	3.75966	-84.9933	175.442	-1.70026	-107.882	176.673	-4.8274	-137.939	195.155	-2.58662	-79.1122	198.265	-6.92764	-104.415	200.786	-10.8417	-129.341	211.868	-11.3584	-61.8598	223.7	-15.7104	-79.2804	234.428	-13.7985	-103.121	192.337	11.165	-28.5362	188.906	16.7302	-0.40097	159.029	17.6901	-19.3933	
15	0.125	130.239	0.652813	-6.27216	111.759	-10.1061	-19.6399	94.4195	-12.9199	-39.1571	81.0038	-16.0986	-55.7753	140.407	4.88771	-80.0843	135.172	-0.68441	-104.887	132.756	-0.170218	-126.581	170.387	2.70646	-86.6911	171.087	-2.33642	-111.887	174.162	-4.44507	-136.044	190.578	-2.32018	-80.181	200.848	-7.0813	-99.2224	203.318	-11.0701	-127.133	212.72	-11.677	-62.0299	222.81	-16.7739	-79.8804	233.78	-14.3263	-101.434	193.924	11.647	-27.2376	193.301	16.1257	-2.13948	159.832	17.5273	-15.5486	
16	0.133333	133.73	-0.714164	-5.39812	110.369	-9.81176	-20.4081	96.3661	-13.9386	-43.4853	79.9162	-16.87	-58.0316	140.432	4.59586	-80.954	134.053	-0.258897	-103.125	136.273	-0.304313	-129.23	169.305	4.17757	-83.5049	171.287	-2.19718	-108.961	178.901	-5.82471	-134.824	190.531	-2.46943	-75.6708	197.841	-7.89718	-102.702	201.154	-11.0323	-128.601	212.367	-11.5091	-59.7399	221.351	-17.1217	-83.6299	233.337	-14.6772	-103.541	191.72	12.3343	-26.9271	192.856	16.9021	1.28074	160.795	17.4033	-14.6459	
17	0.141667	130.27	0.787431	-6.96569	112.35	-11.0061	-23.82	93.5064	-13.7235	-39.6067	80.3021	-16.2822	-55.0201	142.621	4.67339	-81.969	137.232	0.087999	-104.294	136.336	-0.765598	-126.865	171.851	2.97935	-86.577	173.618	-2.49646	-112.415	174.492	-4.64713	-137.663	189.521	-1.84124	-79.5953	199.581	-8.30711	-104.62	199.173	-11.0332	-126.906	210.888	-10.9695	-64.9094	221.83	-16.9579	-84.0401	236.473	-13.9983	-99.6784	192.496	12.4534	-27.7645	191.874	17.1552	2.6237	157.3	18.0815	-15.3865	
18	0.15	127.839	1.3773	-2.80994	110.309	-10.0387	-22.9827	91.8833	-13.8581	-38.5231	77.184	-16.2753	-55.8661	139.281	4.92598	-78.7102	136.472	0.674086	-101.543	137.335	0.616902	-129.539	168.567	4.16317	-87.674	174.128	-2.26823	-108.099	179.32	-5.95914	-138.022	193.672	-2.5236	-75.8266	197.109	-6.76587	-99.8007	199.932	-11.2546	-127.601	210.035	-11.2831	-61.2943	220.561	-16.5703	-84.4988	233.936	-15.5957	-98.4025	187.702	12.2503	-29.71	187.801	14.5359	0.324009	159.615	18.5289	-16.4134	
19	0.158333	128.192	0.762314	-5.88686	112.634	-10.6359	-23.9936	95.6147	-14.5335	-38.9878	78.4191	-17.3101	-56.4567	140.413	4.16528	-76.4949	134.877	0.751051	-102.076	132.494	0.459242	-125.103	173.259	3.00568	-86.8119	173.954	-2.90994	-110.691	176.878	-5.74807	-138.954	192.462	-2.71837	-80.6636	194.352	-6.89695	-102.584	199.44	-11.7139	-130.069	208.173	-11.9277	-61.4022	219.859	-16.8848	-81.3491	231.128	-12.9214	-103.752	187.501	12.163	-31.6628	190.096	15.6093	-2.50183	160.273	18.4333	-14.4099	
20	0.166667	131.93	-0.378926	-7.02268	113.085	-9.96026	-19.2528	91.0778	-12.9978	-38.1392	82.2746	-16.8566	-58.1861	144.363	5.61734	-78.7591	133.848	2.36525	-101.454	132.777	1.16541	-125.694	169.295	5.36341	-82.6922	173.449	-0.360887	-107.629	173.357	-4.43114	-139.839	190.984	-1.51625	-79.9557	194.395	-6.72324	-103.901	201.735	-11.3688	-125.813	213.419	-11.9507	-62.3013	221.477	-17.548	-79.434	234.796	-15.0252	-100.51	193.69	12.1759	-25.9956	193.154	16.155	1.19741	156.807	18.0223	-18.774	
21	0.175	130.644	1.82105	-6.72367	113.661	-9.66951	-23.5212	91.4372	-10.9005	-39.8724	80.6297	-14.726	-55.1856	142.286	8.95992	-81.0309	134.833	6.68093	-99.6066	132.72	4.0741	-129.688	170.92	6.7173	-85.1778	169.345	1.15781	-111.956	173.693	-3.42787	-138.783	193.805	-0.889176	-80.8939	195.922	-6.17586	-100.389	200.709	-10.2832	-126.559	213.146	-11.0902	-65.6133	219.145	-16.6153	-83.5309	231.726	-14.4518	-103.179	189.245	13.2655	-25.6774	192.412	14.303	1.54082	162.597	19.5157	-14.5661	
22	0.183333	131.931	3.44962	-7.07977	114.413	-7.32446	-21.0489	93.7776	-7.9315	-44.1583	80.3013	-11.2603	-59.896	141.762	13.3751	-80.853	135.878	8.74762	-104.215	135.601	6.94129	-128.577	173.335	8.24249	-82.4324	173.166	2.41776	-110.63	172.909	-3.84978	-141.59	193.949	0.454461	-77.5737	194.919	-3.70707	-102.787	200.156	-9.82093	-128.974	209.469	-9.16353	-67.8238	220.494	-16.0371	-83.6825	228.758	-12.6367	-107.168	190.669	14.2459	-31.0033	191.131	13.8547	3.00165	162.392	19.9091	-17.9417	
23	0.191667	130.463	4.01315	-4.18402	113.158	-5.98163	-22.1738	97.0658	-7.27949	-40.9029	78.7781	-8.42306	-58.6808	146.154	15.0858	-77.0069	135.112	12.5866	-103.478	137.896	8.36405	-127.473	169.933	11.1832	-82.106	172.177	3.7838	-111.132	171.417	-3.71554	-138.195	192.271	0.9467	-79.6972	197.133	-4.41409	-106.787	193.821	-11.3638	-133.553	211.043	-9.14489	-67.2868	216.646	-13.6876	-83.557	229.324	-18.4513	-108.764	193.078	11.3146	-30.6389	193.883	13.6648	2.9545	163.234	20.7492	-12.8916	
